<svg width="50" height="50" viewBox="0 0 50 50" fill="none" xmlns="http://www.w3.org/2000/svg">
<path d="M47.2331 13.5574C45.4823 10.1618 42.9291 7.16347 39.8498 4.88633C39.3979 4.55225 38.761 4.64773 38.4267 5.09949C38.0925 5.55126 38.1881 6.18838 38.6399 6.52262C41.4697 8.61526 43.8157 11.3703 45.4245 14.4901C47.1102 17.7591 47.9648 21.2951 47.9648 25.0001C47.9648 37.6629 37.6628 47.965 24.9999 47.965C12.3371 47.965 2.03498 37.6629 2.03498 24.9999C2.03498 12.3369 12.3371 2.03498 24.9999 2.03498C25.5617 2.03498 26.0174 1.57932 26.0174 1.01749C26.0174 0.455666 25.5617 0 24.9999 0C11.215 0 0 11.215 0 24.9999C0 38.7849 11.215 49.9998 24.9999 49.9998C38.7849 49.9998 49.9998 38.7849 49.9998 24.9999C49.9998 21.0242 49.0432 17.0676 47.2331 13.5574Z" fill="white"/>
<path d="M18.6029 13.3917C18.2848 13.5726 18.0883 13.9104 18.0883 14.2762V36.6057C18.0883 37.1677 18.5439 37.6232 19.1057 37.6232C19.6676 37.6232 20.1232 37.1677 20.1232 36.6057V16.0662L35.1877 25.0342L24.1099 32.1714C23.6376 32.4758 23.5013 33.1054 23.8057 33.5777C24.1103 34.0501 24.7398 34.1865 25.2122 33.8819L37.6705 25.8551C37.9666 25.6643 38.143 25.334 38.1367 24.9818C38.1304 24.6295 37.9425 24.3056 37.6398 24.1254L19.6262 13.4019C19.3114 13.2148 18.9211 13.2107 18.6029 13.3917Z" fill="white"/>
</svg>
