<?xml version="1.0" encoding="iso-8859-1"?>
<!-- Generator: Adobe Illustrator 16.0.0, SVG Export Plug-In . SVG Version: 6.00 Build 0)  -->
<!DOCTYPE svg PUBLIC "-//W3C//DTD SVG 1.1//EN" "http://www.w3.org/Graphics/SVG/1.1/DTD/svg11.dtd">
<svg version="1.1" id="Capa_1" xmlns="http://www.w3.org/2000/svg" xmlns:xlink="http://www.w3.org/1999/xlink" x="0px" y="0px"
	 width="415.49px" height="415.49px" viewBox="0 0 415.49 415.49" style="enable-background:new 0 0 415.49 415.49;fill: #fff;"
	 xml:space="preserve">
<g>
	<g>
		<path d="M411.188,392.062L286.875,267.75l-1.912,1.912c24.862-28.688,40.162-66.937,40.162-107.1
			C325.125,72.675,252.45,0,162.562,0S0,72.675,0,162.562s72.675,162.562,162.562,162.562c42.075,0,78.412-15.3,107.1-40.162
			l-1.912,1.912l124.312,124.312c5.737,5.737,13.388,5.737,19.125,0S416.925,397.8,411.188,392.062z M162.562,306
			C84.15,306,19.125,240.975,19.125,162.562c0-78.413,65.025-143.438,143.438-143.438C240.975,19.125,306,84.15,306,162.562
			C306,240.975,240.975,306,162.562,306z"/>
		<polygon points="172.125,76.5 153,76.5 153,153 76.5,153 76.5,172.125 153,172.125 153,248.625 172.125,248.625 172.125,172.125 
			248.625,172.125 248.625,153 172.125,153 		"/>
	</g>
</g>
<g>
</g>
<g>
</g>
<g>
</g>
<g>
</g>
<g>
</g>
<g>
</g>
<g>
</g>
<g>
</g>
<g>
</g>
<g>
</g>
<g>
</g>
<g>
</g>
<g>
</g>
<g>
</g>
<g>
</g>
</svg>
